<svg width="32" height="32" viewBox="0 0 32 32" fill="none" xmlns="http://www.w3.org/2000/svg">
<path d="M16 32C11.7565 32 7.68687 30.3143 4.68629 27.3137C1.68571 24.3131 0 20.2435 0 16C0 11.7565 1.68571 7.68687 4.68629 4.68629C7.68687 1.68571 11.7565 0 16 0C20.2435 0 24.3131 1.68571 27.3137 4.68629C30.3143 7.68687 32 11.7565 32 16C32 20.2435 30.3143 24.3131 27.3137 27.3137C24.3131 30.3143 20.2435 32 16 32ZM23 17C23.2652 17 23.5196 16.8946 23.7071 16.7071C23.8946 16.5196 24 16.2652 24 16C24 15.7348 23.8946 15.4804 23.7071 15.2929C23.5196 15.1054 23.2652 15 23 15H11.414L15.708 10.708C15.801 10.615 15.8747 10.5046 15.925 10.3832C15.9754 10.2617 16.0013 10.1315 16.0013 10C16.0013 9.86851 15.9754 9.73831 15.925 9.61683C15.8747 9.49535 15.801 9.38498 15.708 9.292C15.615 9.19902 15.5046 9.12527 15.3832 9.07495C15.2617 9.02464 15.1315 8.99874 15 8.99874C14.8685 8.99874 14.7383 9.02464 14.6168 9.07495C14.4954 9.12527 14.385 9.19902 14.292 9.292L8.292 15.292C8.19887 15.3849 8.12499 15.4952 8.07458 15.6167C8.02416 15.7382 7.99821 15.8685 7.99821 16C7.99821 16.1315 8.02416 16.2618 8.07458 16.3833C8.12499 16.5048 8.19887 16.6151 8.292 16.708L14.292 22.708C14.385 22.801 14.4954 22.8747 14.6168 22.925C14.7383 22.9754 14.8685 23.0013 15 23.0013C15.1315 23.0013 15.2617 22.9754 15.3832 22.925C15.5046 22.8747 15.615 22.801 15.708 22.708C15.801 22.615 15.8747 22.5046 15.925 22.3832C15.9754 22.2617 16.0013 22.1315 16.0013 22C16.0013 21.8685 15.9754 21.7383 15.925 21.6168C15.8747 21.4954 15.801 21.385 15.708 21.292L11.414 17H23Z" fill="black"/>
</svg>
