<svg width="26" height="26" viewBox="0 0 26 26" fill="none" xmlns="http://www.w3.org/2000/svg">
<g clip-path="url(#clip0_5_132)">
<path d="M13 24.375C9.98316 24.375 7.08989 23.1766 4.95666 21.0433C2.82343 18.9101 1.625 16.0168 1.625 13C1.625 9.98316 2.82343 7.08989 4.95666 4.95666C7.08989 2.82343 9.98316 1.625 13 1.625C16.0168 1.625 18.9101 2.82343 21.0433 4.95666C23.1766 7.08989 24.375 9.98316 24.375 13C24.375 16.0168 23.1766 18.9101 21.0433 21.0433C18.9101 23.1766 16.0168 24.375 13 24.375ZM13 26C16.4478 26 19.7544 24.6304 22.1924 22.1924C24.6304 19.7544 26 16.4478 26 13C26 9.55219 24.6304 6.24558 22.1924 3.80761C19.7544 1.36964 16.4478 0 13 0C9.55219 0 6.24558 1.36964 3.80761 3.80761C1.36964 6.24558 0 9.55219 0 13C0 16.4478 1.36964 19.7544 3.80761 22.1924C6.24558 24.6304 9.55219 26 13 26Z" fill="black"/>
<path d="M17.8263 8.07628L17.7938 8.11203L12.1501 15.3027L8.749 11.8999C8.51797 11.6846 8.21239 11.5674 7.89665 11.573C7.58091 11.5786 7.27966 11.7065 7.05637 11.9298C6.83307 12.1531 6.70516 12.4543 6.69959 12.7701C6.69402 13.0858 6.81122 13.3914 7.0265 13.6224L11.3263 17.9238C11.4421 18.0394 11.58 18.1305 11.7318 18.1917C11.8836 18.2528 12.0462 18.2828 12.2098 18.2797C12.3735 18.2767 12.5348 18.2408 12.6843 18.174C12.8337 18.1073 12.9682 18.0111 13.0796 17.8913L19.5666 9.78253C19.7875 9.55069 19.9083 9.24124 19.9028 8.92106C19.8974 8.60089 19.7661 8.29573 19.5375 8.07156C19.3088 7.84738 19.0011 7.7222 18.6809 7.72309C18.3607 7.72397 18.0537 7.85084 17.8263 8.07628Z" fill="black"/>
</g>
<defs>
<clipPath id="clip0_5_132">
<rect width="26" height="26" fill="white"/>
</clipPath>
</defs>
</svg>
